<?xml version="1.0" encoding="UTF-8"?>
<svg id="Capa_2" data-name="Capa 2" xmlns="http://www.w3.org/2000/svg" viewBox="0 0 198.2 277.39">
  <defs>
    <style>
      .cls-1 {
        fill: #f9b233;
      }

      .cls-2 {
        fill: #e94692;
      }

      .cls-3 {
        fill: #5ba7a7;
      }
    </style>
  </defs>
  <g id="sombras">
    <path class="cls-3" d="m107.09,92.22c.23.38.47.74.73,1.1.26.36.53.71.82,1.05.29.35.59.7.91,1.03.46.49.96.95,1.47,1.4.73.64,1.51,1.27,2.32,1.82.84.58,1.72,1.08,2.61,1.48.92.41,1.87.72,2.83.87.97.16,1.96.16,2.95.16h2.66c1.69,0,3.06,1.37,3.07,3.06,0,1.69-1.37,3.06-3.06,3.06h-4.82c-4.08,0-13.44-3.72-18.18-11.63-7.32-12.21-14.64-24.43-21.95-36.64-1.99-3.37-4.14-5.06-8.89-5.06h-10.51c-1.13,0-2.05.92-2.05,2.06v42.62c0,4.77-3.87,8.64-8.65,8.64h-9.44c-1.69,0-3.06-1.37-3.06-3.06s1.37-3.06,3.06-3.06h9.44c1.14,0,2.06-.92,2.06-2.06V8.18c0-1.13-.92-2.06-2.06-2.06h-9.44c-1.69,0-3.06-1.37-3.06-3.06s1.37-3.06,3.06-3.06h9.9c4.52,0,8.19,3.66,8.19,8.18v37.57c0,1.14.92,2.06,2.05,2.06h14.19c.67,0,1.3-.33,1.69-.88,10.05-14.47,20.11-28.94,30.16-43.41,1.53-2.2,4.04-3.52,6.72-3.52h7.7c1.69,0,3.06,1.37,3.06,3.06s-1.37,3.06-3.06,3.06h-7.21c-.67,0-1.3.33-1.68.87-9.89,14.06-19.79,28.13-29.68,42.2-.58.82-.48,1.94.24,2.64.79.78,1.92,2.13,3.25,4.39,7.22,11.99,14.45,23.99,21.67,35.98Z"/>
    <path class="cls-3" d="m117.49,238.01c0,5.53.84,11.73,3.02,17.3.66,1.67-.17,3.55-1.83,4.21-1.67.66-3.55-.17-4.21-1.83-.1-.23-.19-.47-.28-.71-.55-1.45-1.01-2.94-1.4-4.44-.19-.74-.37-1.48-.53-2.23-.26-1.23-.48-2.46-.66-3.7-.21-1.45-.36-2.91-.46-4.37-.1-1.41-.14-2.81-.14-5.48,0-17.15-8.65-33.99-26.73-33.99-15.14,0-27.5,12.51-27.5,34.14s11.12,34.14,26.88,34.14c5.09,0,10.07-1.29,14.35-4.06,1.36-.96,3.24-.65,4.2.71.96,1.36.65,3.24-.71,4.2-4.29,3.05-10.2,5.48-18.16,5.48-20.7,0-33.37-16.53-33.37-40.48s14.37-40.48,34.61-40.48c13.48,0,21.11,8.15,24.53,13.17.26.38.73.54,1.16.41.43-.13.73-.54.73-.99v-44.79c0-4.01,1.28-7.51,3.77-10.59,1.08-1.34,3.04-1.54,4.38-.46,1.34,1.08,1.54,3.04.46,4.38-1.56,1.92-2.12,4.31-2.12,7.28v73.17Z"/>
    <path class="cls-2" d="m122.42,140.99c.04-.08.09-.16.13-.23,1.95-3.29,5.86-4.87,9.55-3.86,3.69,1.01,6.25,4.37,6.25,8.19v40.49c0,3.78,3.07,6.85,6.85,6.85h.97c1.65,0,2.99,1.34,2.99,2.99s-1.34,2.99-2.99,2.99h-.97c-3.52,0-6.9-1.4-9.39-3.89-2.49-2.49-3.89-5.87-3.89-9.39v-40.03c0-.99-.66-1.86-1.62-2.12-.96-.26-1.97.15-2.48,1.01-.64,1.09-1.88,1.67-3.12,1.48-1.25-.19-2.25-1.12-2.54-2.35-.17-.8-.02-1.65.39-2.35"/>
    <path class="cls-3" d="m166.21,97.21c1.29-.92,3.07-.61,3.98.67.92,1.29.61,3.07-.67,3.99-4.13,3.17-9.74,5.65-17.14,5.65-12.26,0-25.74-6.9-25.74-22.68,0-24.72,32.4-25.85,46.33-25.89,1.65.02,2.97,1.36,2.96,3.01-.02,1.65-1.36,2.97-3.01,2.96-8.52-.08-39.54-.1-39.54,19.16,0,8.89,6.59,17.47,19,17.47,5.41,0,10.03-1.63,13.83-4.33Z"/>
    <path class="cls-3" d="m179.19,97.25v-41.68c0-16.4-8.43-22.22-20.38-22.22-9.67,0-17.05,3.86-20.46,6.05-1.48.97-3.47.55-4.44-.94-.97-1.48-.55-3.47.94-4.44,3.76-2.45,12.12-6.8,24.12-6.8,17.62,0,26.66,9.5,26.66,28.19v40.91c0,2.3,1.23,3.37,3.37,3.37h6.21c1.65,0,2.99,1.34,2.99,2.99s-1.34,2.99-2.99,2.99h-7.13c-6.28,0-8.89-2.6-8.89-8.43Z"/>
    <path class="cls-2" d="m135.13,118.51c-3.09,0-5.59,2.5-5.59,5.59s2.5,5.59,5.59,5.59,5.59-2.5,5.59-5.59-2.5-5.59-5.59-5.59Z"/>
    <path class="cls-2" d="m45.35,233.88c-4.66.06-9.43-.87-13.63-3.06-5.15-2.69-9.45-7.29-11.53-12.67-1.45-3.73-1.83-7.85-1.47-11.79,3.96.3,7.88,1.31,11.5,3.08,4.97,2.42,9.37,6.25,12,11.07,2.21,4.05,3.15,8.8,3.14,13.38Z"/>
    <path class="cls-2" d="m.95,69.13c-.14-6.45,1.08-13.08,4.07-18.94,3.67-7.18,9.98-13.19,17.42-16.15,5.16-2.06,10.85-2.65,16.33-2.19-.37,5.49-1.72,10.94-4.12,15.98-3.29,6.92-8.55,13.08-15.19,16.78-5.59,3.11-12.16,4.48-18.51,4.52Z"/>
    <path class="cls-1" d="m174.77,158.73c.07,5.01-.92,10.15-3.27,14.67-2.89,5.55-7.83,10.18-13.62,12.43-4.01,1.56-8.44,1.99-12.68,1.6.32-4.26,1.4-8.48,3.29-12.38,2.59-5.35,6.71-10.1,11.89-12.93,4.36-2.38,9.46-3.4,14.39-3.4Z"/>
    <path class="cls-3" d="m148.15,231.04c-1.61-.76-3.53-.08-4.29,1.53-.76,1.61-.08,3.53,1.53,4.29.66.31,1.32.61,1.98.9.67.29,1.35.56,2.03.82.7.26,1.4.5,2.12.72.73.22,1.47.42,2.22.58.77.17,1.55.32,2.34.43.82.12,1.63.21,2.46.27.86.06,1.72.09,2.59.1.31,0,.62,0,.92,0,.37,0,.75-.02,1.12-.04.74-.04,1.48-.1,2.22-.19,1.38-.17,2.76-.43,4.1-.8.71-.2,1.41-.43,2.1-.69.69-.27,1.37-.57,2.04-.9.67-.34,1.32-.72,1.95-1.14.64-.42,1.25-.88,1.82-1.38.59-.51,1.14-1.06,1.65-1.64.52-.59,1-1.22,1.44-1.88.44-.67.83-1.37,1.18-2.09.35-.73.64-1.49.89-2.27.25-.79.44-1.59.59-2.4.15-.83.25-1.66.3-2.5.03-.43.04-.85.04-1.28,0-.44,0-.89-.03-1.33-.04-.88-.13-1.76-.27-2.63-.14-.86-.33-1.72-.57-2.56-.24-.84-.53-1.66-.88-2.46-.34-.8-.74-1.57-1.18-2.32-.45-.75-.94-1.46-1.48-2.14-.54-.68-1.13-1.33-1.76-1.93-.63-.61-1.3-1.17-2-1.7-.71-.53-1.44-1.01-2.21-1.45-.77-.44-1.57-.84-2.39-1.2-.83-.36-1.68-.68-2.55-.96-1.59-.51-3.22-.87-4.87-1.12-.99-.15-1.98-.26-2.98-.32-1-.07-2-.1-2.99-.1-.74,0-1.47.02-2.21.06s-1.47.11-2.2.19c-1.41.17-2.82.42-4.2.76-.67.17-1.34.35-2,.56-.66.21-1.31.44-1.96.69-.63.24-1.25.51-1.87.79-.61.28-1.22.59-1.81.91-1.17.64-2.29,1.35-3.37,2.13-1.06.77-2.08,1.61-3.04,2.5-.95.89-1.85,1.84-2.69,2.84-.84.99-1.61,2.04-2.33,3.12-.72,1.08-1.38,2.21-1.97,3.37-.6,1.16-1.14,2.35-1.62,3.57-.65,1.64-1.18,3.32-1.61,5.03-.66,2.61-1.08,5.28-1.28,7.97-.1,1.38-.14,2.76-.13,4.14.01,1.43.09,2.86.23,4.28.27,2.79.79,5.55,1.57,8.23.47,1.61,1.03,3.2,1.7,4.75.54,1.25,1.14,2.48,1.81,3.67.67,1.19,1.4,2.34,2.2,3.44.8,1.11,1.66,2.17,2.58,3.18.93,1.01,1.91,1.97,2.96,2.86,1.05.9,2.16,1.74,3.32,2.51,1.18.78,2.4,1.48,3.66,2.11,1.29.64,2.62,1.19,3.98,1.67,1.4.49,2.82.88,4.27,1.2,1.49.32,3.01.56,4.53.71.78.08,1.57.13,2.35.16.4.02.8.03,1.2.03.41,0,.82,0,1.22,0,1.61-.01,3.21-.09,4.81-.24,1.51-.14,3.02-.35,4.51-.63,1.42-.27,2.84-.6,4.23-1,1.34-.39,2.65-.84,3.95-1.36,1.25-.5,2.48-1.06,3.67-1.68,1.16-.6,2.3-1.25,3.41-1.96,1.08-.69,2.14-1.42,3.16-2.19,1.42-1.07,1.71-3.09.64-4.51-1.07-1.42-3.09-1.71-4.51-.64-6.34,4.76-13.79,7.77-24.43,7.77-19.7,0-30.57-14.95-30.57-32.84s9.96-31.71,27.86-31.71c12.68,0,19.7,6.12,19.7,15.62s-6.79,12.91-15.63,12.91c-5.43,0-8.97-1.16-13.27-3.2Z"/>
    <path class="cls-1" d="m23.83,171.58c0,5.98,2.67,9.31,9.2,12.71,1.02.53,1.9.99,2.67,1.39,1.46.76,2.03,2.57,1.27,4.03-.76,1.46-2.57,2.03-4.03,1.27,0,0-1.04-.54-3.62-1.89-8.02-4.18-11.92-9.77-11.92-16.9v-90.36c0-1.13-.92-2.06-2.06-2.06H2.99c-1.65,0-2.99-1.34-2.99-2.99s1.34-2.99,2.99-2.99h12.81c4.44,0,8.03,3.6,8.03,8.03v89.74Z"/>
    <path class="cls-1" d="m94.7,176.67c1.42-1.07,3.44-.78,4.51.64,1.07,1.42.78,3.44-.64,4.51-1.03.77-2.08,1.5-3.16,2.19-1.11.7-2.24,1.35-3.41,1.95-1.2.62-2.42,1.18-3.67,1.68-1.29.52-2.61.97-3.95,1.36-1.39.4-2.8.74-4.23,1-1.49.28-3,.49-4.51.63-1.6.15-3.2.23-4.81.24-.41,0-.82,0-1.22,0-.4,0-.8-.02-1.2-.03-.78-.03-1.57-.09-2.35-.16-1.52-.15-3.03-.38-4.53-.71-1.44-.31-2.87-.71-4.27-1.2-1.36-.47-2.69-1.03-3.98-1.67-1.26-.63-2.49-1.33-3.66-2.11-1.16-.77-2.27-1.6-3.32-2.51-1.04-.89-2.03-1.85-2.96-2.86-.92-1.01-1.78-2.07-2.58-3.18-.8-1.11-1.53-2.26-2.2-3.44-.67-1.19-1.27-2.42-1.81-3.67-.66-1.54-1.23-3.13-1.7-4.75-.78-2.69-1.3-5.45-1.57-8.23-.14-1.42-.21-2.85-.23-4.28-.01-1.38.03-2.77.13-4.15.2-2.69.62-5.36,1.28-7.97.43-1.71.97-3.39,1.62-5.03.48-1.22,1.02-2.41,1.62-3.57.6-1.16,1.25-2.28,1.97-3.36.72-1.08,1.49-2.13,2.33-3.12.84-1,1.73-1.95,2.69-2.84.96-.9,1.97-1.73,3.04-2.5,1.08-.78,2.2-1.49,3.37-2.12.59-.32,1.2-.63,1.81-.91.61-.28,1.24-.55,1.87-.79.65-.25,1.3-.48,1.96-.68.66-.21,1.33-.39,2-.56,1.38-.34,2.79-.59,4.2-.76.73-.09,1.47-.15,2.2-.19s1.47-.06,2.21-.06c1,0,2,.03,2.99.1,1,.07,1.99.18,2.98.33,1.65.25,3.28.61,4.87,1.12.86.28,1.71.59,2.55.96.82.36,1.61.76,2.39,1.2.76.44,1.5.92,2.21,1.45.7.52,1.37,1.09,2,1.7.63.6,1.21,1.25,1.76,1.93.54.68,1.04,1.4,1.48,2.14s.84,1.52,1.18,2.32c.34.8.64,1.62.88,2.46.24.84.43,1.69.57,2.56.14.87.23,1.75.27,2.63.02.44.03.89.03,1.33,0,.43-.02.86-.04,1.28-.05.84-.15,1.68-.3,2.5-.15.81-.34,1.61-.59,2.4-.25.77-.54,1.53-.89,2.27-.34.72-.74,1.42-1.18,2.09-.43.66-.92,1.29-1.44,1.88-.51.58-1.07,1.13-1.65,1.64-.58.5-1.19.96-1.82,1.38-.63.42-1.28.79-1.95,1.14-.66.34-1.34.64-2.04.9-.69.26-1.39.49-2.1.69-1.34.37-2.71.63-4.1.8-.74.09-1.48.15-2.22.19-.37.02-.75.03-1.12.04-.31,0-.62,0-.92,0-.86,0-1.73-.04-2.59-.1-.82-.06-1.64-.15-2.46-.27-.78-.12-1.56-.26-2.34-.43-.75-.17-1.49-.36-2.22-.58-.71-.22-1.42-.46-2.12-.72-.68-.26-1.36-.53-2.03-.82-.67-.29-1.33-.59-1.98-.9-1.61-.76-2.29-2.68-1.53-4.29.76-1.61,2.68-2.29,4.29-1.53,4.3,2.04,7.84,3.2,13.27,3.2,8.83,0,15.63-3.85,15.63-12.91,0-9.51-7.02-15.62-19.7-15.62-17.89,0-27.86,14.49-27.86,31.71s10.87,32.84,30.57,32.84c10.64,0,18.09-3.01,24.43-7.77Z"/>
  </g>
</svg>